<?xml version="1.0" standalone="no"?>
<!DOCTYPE svg PUBLIC "-//W3C//DTD SVG 20010904//EN"
 "http://www.w3.org/TR/2001/REC-SVG-20010904/DTD/svg10.dtd">
<svg version="1.0" xmlns="http://www.w3.org/2000/svg"
 width="100%" height="100%" viewBox="0 0 1024.000000 1024.000000"
 preserveAspectRatio="xMidYMid meet">
<metadata>
Created by potrace 1.16, written by Peter Selinger 2001-2019
</metadata>
<g transform="translate(0.000000,1024.000000) scale(0.100000,-0.100000)"
fill="currentColor" stroke="none">
<path d="M3295 7514 c-40 -8 -116 -37 -175 -66 -88 -43 -117 -64 -186 -132
-91 -91 -148 -184 -192 -311 l-27 -80 -3 -1765 c-2 -1312 0 -1783 8 -1835 48
-283 273 -525 555 -595 79 -20 111 -20 1875 -18 l1795 3 72 27 c134 49 193 87
293 188 78 77 104 111 138 180 23 47 51 121 62 164 20 78 20 116 20 1838 0
1983 6 1824 -80 2003 -98 203 -271 342 -495 396 -77 18 -135 19 -1835 18
-1485 -1 -1766 -3 -1825 -15z m3659 -54 c238 -61 415 -230 498 -476 l23 -69 0
-1800 0 -1800 -28 -81 c-68 -201 -232 -367 -439 -442 l-73 -27 -1815 0 -1815
0 -73 27 c-109 40 -177 84 -267 173 -63 63 -90 100 -127 171 -85 168 -79 13
-76 2009 l3 1770 27 80 c79 233 260 404 492 465 68 18 146 19 1832 19 1720 1
1763 1 1838 -19z"/>
<path d="M4315 6970 c-112 -20 -209 -74 -291 -162 -63 -66 -99 -135 -125 -236
-18 -72 -19 -121 -19 -1269 l0 -1193 -59 0 c-39 0 -63 -5 -71 -15 -24 -29 0
-35 155 -35 126 0 154 3 159 15 8 21 -25 35 -83 35 l-51 0 0 1190 c0 820 3
1205 11 1242 18 88 74 190 138 251 187 179 454 179 642 1 45 -44 119 -153 119
-177 0 -3 -30 -14 -67 -26 -119 -36 -219 -135 -257 -255 -21 -63 -22 -202 -2
-213 8 -4 180 -6 383 -3 l368 5 3 74 c5 136 -51 259 -156 336 -45 34 -151 74
-196 76 -16 0 -29 17 -58 77 -79 166 -239 274 -425 286 -37 3 -90 1 -118 -4z
m705 -441 c77 -36 121 -77 160 -151 28 -51 34 -77 38 -140 l5 -78 -338 0 -338
0 5 78 c9 148 90 254 236 309 57 21 166 12 232 -18z"/>
<path d="M4792 6478 c-44 -15 -118 -82 -142 -127 -29 -57 -35 -107 -15 -115
24 -9 31 -2 45 50 25 87 86 135 203 159 20 4 27 11 25 23 -4 21 -66 26 -116
10z"/>
<path d="M5691 6966 c-8 -9 -11 -88 -9 -272 l3 -259 218 -3 217 -2 -2 272 -3
273 -206 3 c-167 2 -208 0 -218 -12z m379 -166 l0 -130 -52 0 c-29 0 -58 4
-65 8 -15 9 -183 233 -183 244 0 4 68 8 150 8 l150 0 0 -130z m-247 -38 l79
-107 -79 -72 c-43 -40 -81 -72 -85 -73 -5 0 -8 81 -8 180 0 99 3 180 8 179 4
0 42 -48 85 -107z m247 -207 l0 -75 -129 0 c-71 0 -136 -3 -145 -6 -34 -13
-11 14 70 84 85 72 86 72 145 72 l59 0 0 -75z"/>
<path d="M6268 6729 c-17 -9 -18 -40 -18 -407 0 -296 3 -401 12 -410 9 -9 79
-12 254 -12 133 0 249 3 258 6 14 5 16 51 16 409 0 310 -3 405 -12 413 -18 14
-487 15 -510 1z m472 -79 l0 -39 -107 -56 c-60 -30 -116 -62 -127 -70 -21 -16
-25 -70 -12 -167 l7 -58 -100 0 -101 0 0 208 c0 115 3 212 7 215 3 4 102 7
220 7 l213 0 0 -40z m0 -367 l0 -268 -77 123 c-59 94 -81 122 -98 122 -20 0
-21 6 -24 82 -1 45 -4 85 -6 89 -3 4 1 12 9 18 10 8 181 97 194 100 1 1 2
-119 2 -266z m-114 -180 c37 -60 74 -118 82 -130 l14 -23 -211 0 -211 0 0 130
0 130 129 0 129 0 68 -107z"/>
<path d="M3486 5608 c-48 -73 -96 -224 -96 -303 0 -39 -1 -37 -46 53 -69 138
-214 285 -214 216 0 -9 27 -45 59 -80 33 -35 75 -92 94 -126 42 -76 93 -216
102 -284 l7 -49 -27 50 c-42 78 -95 142 -160 196 -72 59 -95 63 -95 17 1 -139
143 -378 264 -443 42 -23 46 -35 46 -142 l0 -83 -113 0 c-65 0 -117 -4 -123
-10 -8 -8 3 -94 35 -283 l46 -272 178 -3 c176 -2 177 -2 186 20 15 36 93 518
87 534 -4 11 -30 14 -126 14 -121 0 -121 0 -114 23 3 12 11 24 16 26 32 12
119 96 155 149 67 99 106 252 66 252 -43 0 -140 -84 -193 -167 -27 -42 -30
-44 -24 -18 31 155 83 255 185 359 43 44 79 86 79 93 0 23 -36 14 -80 -21 -84
-66 -164 -190 -206 -317 l-18 -54 -8 59 c-7 55 -6 61 23 103 62 90 82 156 86
288 6 178 -27 271 -71 203z m28 -228 c-7 -61 -37 -162 -59 -200 -13 -23 -14
-18 -15 70 0 96 15 177 46 248 l17 37 8 -50 c5 -27 6 -75 3 -105z m-292 -178
c74 -82 163 -242 156 -280 -6 -31 -116 96 -158 183 -65 133 -64 170 2 97z
m433 -252 c-8 -23 -25 -59 -37 -79 -26 -42 -97 -121 -109 -121 -11 0 16 75 47
128 27 45 102 127 110 119 2 -2 -3 -23 -11 -47z m12 -382 c-2 -7 -21 -113 -42
-235 l-38 -223 -139 0 c-135 0 -138 1 -143 23 -8 36 -75 423 -75 436 0 8 62
11 221 11 173 0 220 -3 216 -12z"/>
<path d="M4388 5490 c-51 -15 -94 -49 -118 -92 -24 -41 -25 -52 -25 -198 l0
-155 -60 -6 c-130 -12 -125 4 -125 -444 0 -397 0 -400 56 -444 18 -14 41 -21
70 -21 l43 0 3 -52 3 -53 97 -3 c108 -3 103 -6 110 73 3 30 3 30 78 35 67 4
75 7 75 25 0 19 -8 20 -222 23 l-222 2 -20 27 c-20 25 -21 37 -21 388 0 338 1
363 18 378 28 26 232 25 255 -1 15 -16 17 -51 17 -283 0 -196 3 -270 13 -282
11 -16 57 -17 607 -15 l595 3 5 107 c4 88 9 112 26 135 40 53 34 53 540 53
468 0 471 0 499 -22 39 -30 55 -77 55 -158 l0 -70 -254 0 c-211 0 -255 -2
-259 -14 -13 -33 17 -36 289 -34 l269 3 3 279 c2 243 4 282 19 298 14 15 33
18 133 18 130 0 137 -3 147 -64 3 -19 2 -187 -2 -372 -7 -310 -9 -338 -26
-355 -17 -17 -37 -19 -238 -19 -169 0 -221 -3 -230 -13 -20 -24 9 -37 84 -37
l71 0 10 -52 9 -53 94 -3 c106 -3 111 -1 111 64 l0 41 52 5 c41 4 57 11 79 35
24 28 27 39 32 139 10 205 9 609 -2 651 -16 59 -41 76 -116 81 l-63 4 -4 157
c-3 145 -5 159 -28 199 -15 27 -42 54 -70 70 l-45 27 -515 3 c-575 4 -597 2
-657 -54 l-36 -35 -31 30 c-62 58 -37 56 -616 58 -294 1 -547 -2 -562 -7z
m1102 -58 c19 -9 45 -32 57 -51 23 -34 23 -38 23 -363 l0 -329 -31 23 -31 23
-483 3 c-505 3 -491 4 -567 -36 -5 -2 -8 55 -8 128 0 175 -16 204 -120 212
l-35 3 -3 105 c-4 147 4 204 36 241 49 59 40 58 607 59 476 0 523 -2 555 -18z
m1338 -7 c58 -35 72 -81 72 -243 l0 -142 -46 0 c-39 0 -51 -5 -80 -34 l-34
-34 0 -137 c0 -75 -3 -135 -7 -133 -77 40 -63 39 -566 36 l-482 -3 -32 -23
-33 -23 0 323 c0 370 1 375 81 416 l44 23 525 -3 c503 -3 526 -4 558 -23z
m-1314 -756 c42 -33 56 -70 56 -154 l0 -75 -557 2 -558 3 -3 35 c-2 19 -1 60
3 89 6 44 14 62 40 88 l33 33 480 0 c471 0 480 0 506 -21z m-1124 -569 c0 -30
-1 -30 -55 -30 -54 0 -55 0 -55 30 0 30 1 30 55 30 54 0 55 0 55 -30z m2530 0
l0 -30 -60 0 -60 0 0 30 0 30 60 0 60 0 0 -30z"/>
<path d="M4564 5335 c-11 -28 10 -36 82 -33 61 3 69 5 69 23 0 18 -8 20 -73
23 -59 2 -73 0 -78 -13z"/>
<path d="M4784 5335 c-10 -25 9 -37 57 -33 36 2 44 7 44 23 0 17 -8 20 -48 23
-36 2 -49 -1 -53 -13z"/>
<path d="M5923 4461 l-29 -39 -23 19 c-48 39 -98 18 -122 -49 -8 -24 -17 -32
-35 -32 -14 0 -27 -6 -30 -14 -9 -25 16 -95 47 -131 l31 -35 -534 -2 -533 -3
-3 -88 c-3 -105 3 -117 64 -117 l44 0 2 -252 3 -253 61 -3 c41 -2 64 1 71 10
6 7 16 63 22 123 7 61 15 118 17 128 5 16 41 17 617 15 l611 -3 16 -127 c9
-71 21 -133 27 -139 5 -5 37 -9 69 -7 l59 3 3 252 2 252 53 3 52 3 0 100 0
100 -207 3 -207 2 30 44 c20 28 33 61 36 90 6 46 6 46 -25 46 -27 0 -34 6 -52
47 -44 101 -90 118 -137 54z m77 -43 c30 -49 26 -58 -25 -58 -29 0 -45 4 -45
13 0 14 37 77 45 77 3 0 14 -15 25 -32z m-140 -33 l23 -25 -46 0 c-51 0 -52 1
-37 31 14 26 32 24 60 -6z m223 -92 c-24 -66 -93 -113 -168 -113 -61 0 -103
19 -143 64 -57 65 -54 66 143 66 162 0 174 -1 168 -17z m357 -218 l0 -55 -847
2 -848 3 -3 53 -3 52 850 0 851 0 0 -55z m-1484 -132 c-7 -35 -56 -401 -56
-419 0 -8 -10 -14 -25 -14 l-24 0 -3 230 -3 230 58 0 c59 0 59 0 53 -27z
m1215 25 c0 -2 6 -42 13 -90 l12 -88 -604 0 -605 0 7 68 c4 37 9 77 13 90 l5
22 579 0 c318 0 579 -1 580 -2z m164 -228 l0 -230 -26 0 -25 0 -27 208 c-15
114 -30 217 -33 230 -4 21 -1 22 53 22 l58 0 0 -230z"/>
<path d="M3494 3638 c-224 -327 -237 -347 -230 -364 8 -21 3848 -21 3865 0 8
10 6 21 -12 47 -13 19 -105 157 -206 307 l-183 272 -124 0 c-115 0 -124 -1
-124 -19 0 -26 18 -31 125 -31 l94 0 181 -267 181 -268 -1857 -3 c-1022 -1
-1859 0 -1862 2 -4 5 327 497 352 524 9 10 123 14 497 18 266 2 490 4 497 4 6
0 12 9 12 20 0 20 -7 20 -513 20 l-513 0 -180 -262z"/>
</g>
</svg>
